<svg height="64" viewBox="0 0 64 64" width="64" xmlns="http://www.w3.org/2000/svg"><g fill="none" fill-rule="evenodd"><path d="m49 28v-12h-34v12c0 1.6568542 7.6111593 3 17 3s17-1.3431458 17-3z" fill="#0a3586"/><path d="m15 28h34v19h-34z" fill="#ffde95"/><path d="m54 14h2v15h-2z" fill="#ed5144"/><circle cx="55" cy="30" fill="#d3d824" r="3"/><path d="m4.875 14.397 27.356-10.397 26.894 10.397-26.894 8.631z" fill="#325aa6"/><path d="m12 33 20 4.615v25.385l-20-4.615z" fill="#e77cfa"/><rect fill="#ffdd95" height="9" rx="2" width="6" x="9" y="45"/><path d="m32 33 20 4.615v25.385l-20-4.615z" fill="#e552ff" transform="matrix(-1 0 0 1 84 0)"/><rect fill="#ffdd95" height="9" rx="2" width="6" x="49" y="45"/></g></svg>