<svg height="24" width="24" xmlns="http://www.w3.org/2000/svg"><g transform="translate(0 -1028.4)"><path d="m0 1050.4h24l-4-6h-16z" fill="#95a5a6"/><path d="m2 1032.4h20v17h-20z" fill="#f1c40f"/><path d="m4 1039.4h9v9h-9z" fill="#ecf0f1"/><path d="m14 1040.4h6v9h-6z" fill="#ecf0f1"/><path d="m2 1037.4h20v4h-20z" fill="#f39c12"/><path d="m14 1039.4h6v1h-6z" fill="#bdc3c7"/><path d="m4 1039.4h9v2h-9z" fill="#bdc3c7"/><path d="m0 1036.4v1.5c0 .8.67157 1.5 1.5 1.5.8284 0 1.5-.7 1.5-1.5v-1.5h-1.5z" fill="#c0392b"/><path d="m3 1036.4v1.5c0 .8.6716 1.5 1.5 1.5s1.5-.7 1.5-1.5v-1.5h-1.5z" fill="#bdc3c7"/><path d="m6 1036.4v1.5c0 .8.6716 1.5 1.5 1.5s1.5-.7 1.5-1.5v-1.5h-1.5z" fill="#c0392b"/><path d="m9 1036.4v1.5c0 .8.6716 1.5 1.5 1.5.828 0 1.5-.7 1.5-1.5v-1.5h-1.5z" fill="#bdc3c7"/><path d="m12 1036.4v1.5c0 .8.672 1.5 1.5 1.5s1.5-.7 1.5-1.5v-1.5h-1.5z" fill="#c0392b"/><path d="m15 1036.4v1.5c0 .8.672 1.5 1.5 1.5s1.5-.7 1.5-1.5v-1.5h-1.5z" fill="#bdc3c7"/><path d="m18 1036.4v1.5c0 .8.672 1.5 1.5 1.5s1.5-.7 1.5-1.5v-1.5h-1.5z" fill="#c0392b"/><path d="m21 1036.4v1.5c0 .8.672 1.5 1.5 1.5s1.5-.7 1.5-1.5v-1.5h-1.5z" fill="#bdc3c7"/><path d="m10 1032.4h2v4h-3z" fill="#ecf0f1"/><path d="m12 1032.4h2l1 4h-3z" fill="#e74c3c"/><path d="m5 1032.4h3l-2 4h-3z" fill="#ecf0f1"/><path d="m8 1032.4h2l-1 4h-3z" fill="#e74c3c"/><path d="m16 1032.4h-2l1 4h3z" fill="#ecf0f1"/><path d="m19 1032.4h-3l2 4h3z" fill="#e74c3c"/><path d="m2 1032.4h3l-2 4h-3z" fill="#e74c3c"/><path d="m22 1032.4h-3l2 4h3z" fill="#ecf0f1"/><path d="m15 1041.4h4v8h-4z" fill="#3498db"/><path d="m14 1044.4h5v1h-5z" fill="#ecf0f1"/><path d="m19 1040.4h1v1h-1z" fill="#bdc3c7"/><path d="m15 1040.4h4v1h-4z" fill="#2980b9"/><path d="m14 1040.4h1v1h-1z" fill="#bdc3c7"/><path d="m5 1040.4h7v7h-7z" fill="#3498db"/><g fill="#ecf0f1"><path d="m4 1043.4h9v1h-9z"/><path d="m8 1040.4h1v7h-1z"/><path d="m1 1032.4h22l-3.667-2h-14.666l-3.667 2"/></g><path d="m8 1040.4h1v1h-1z" fill="#bdc3c7"/><path d="m1 1031.4h22l-3.667-2h-14.666l-3.667 2" fill="#bdc3c7"/><path d="m1 1031.4h22v1h-22z" fill="#7f8c8d"/><path d="m15 1046.4h4v3h-4z" fill="#2980b9"/><path d="m0 1050.4h24v1h-24z" fill="#7f8c8d"/><path d="m5 12v1h3v-1zm4 0v1h3v-1z" fill="#2980b9" transform="translate(0 1028.4)"/><path d="m5 1046.4v1h3v-1zm4 0v1h3v-1z" fill="#2980b9"/><path d="m2 1032.4-.5 1h3l.5-1zm5 0-.25 1h3l.25-1zm5 0v1h2.25l-.25-1zm4 0 .5 1h3l-.5-1z" fill="#c0392b"/><path d="m5 1032.4-.5 1h3.0013l.4987-1zm5 0-.25 1h2.25v-1zm4 0 .25 1h2.25l-.5-1zm5 0 .5 1h3l-.5-1z" fill="#bdc3c7"/></g></svg>